<mxfile host="app.diagrams.net" modified="2023-09-13T11:04:26.090Z" agent="Mozilla/5.0 (Windows NT 10.0; Win64; x64) AppleWebKit/537.36 (KHTML, like Gecko) Chrome/116.0.0.0 Safari/537.36" etag="DUUOsr_cBax73BRn3O15" version="21.7.5" type="github">
  <diagram name="Page-1" id="4__O-zO-mo1P6IQbboc_">
    <mxGraphModel dx="2074" dy="1150" grid="1" gridSize="10" guides="1" tooltips="1" connect="1" arrows="1" fold="1" page="1" pageScale="1" pageWidth="850" pageHeight="1100" math="0" shadow="0">
      <root>
        <mxCell id="0" />
        <mxCell id="1" parent="0" />
        <mxCell id="4IMUNL5szZFA0a5O7ddQ-70" style="edgeStyle=orthogonalEdgeStyle;rounded=0;orthogonalLoop=1;jettySize=auto;html=1;exitX=0;exitY=0.5;exitDx=0;exitDy=0;entryX=1.003;entryY=0.29;entryDx=0;entryDy=0;entryPerimeter=0;" parent="1" source="4IMUNL5szZFA0a5O7ddQ-2" target="4IMUNL5szZFA0a5O7ddQ-12" edge="1">
          <mxGeometry relative="1" as="geometry" />
        </mxCell>
        <mxCell id="4IMUNL5szZFA0a5O7ddQ-2" value="Authorization and Authentication Domain" style="whiteSpace=wrap;html=1;aspect=fixed;align=left;verticalAlign=top;" parent="1" vertex="1">
          <mxGeometry x="1640" y="550" width="220" height="220" as="geometry" />
        </mxCell>
        <mxCell id="4IMUNL5szZFA0a5O7ddQ-4" value="Reporting domain" style="whiteSpace=wrap;html=1;aspect=fixed;align=left;verticalAlign=top;" parent="1" vertex="1">
          <mxGeometry x="760" y="240" width="240" height="240" as="geometry" />
        </mxCell>
        <mxCell id="4IMUNL5szZFA0a5O7ddQ-5" value="local IDP" style="rounded=0;whiteSpace=wrap;html=1;" parent="1" vertex="1">
          <mxGeometry x="1650" y="630" width="90" height="60" as="geometry" />
        </mxCell>
        <mxCell id="4IMUNL5szZFA0a5O7ddQ-6" value="OpenID integration with external IDP" style="rounded=0;whiteSpace=wrap;html=1;" parent="1" vertex="1">
          <mxGeometry x="1750" y="630" width="90" height="60" as="geometry" />
        </mxCell>
        <mxCell id="4IMUNL5szZFA0a5O7ddQ-61" style="edgeStyle=orthogonalEdgeStyle;rounded=0;orthogonalLoop=1;jettySize=auto;html=1;exitX=1;exitY=0.5;exitDx=0;exitDy=0;entryX=0;entryY=0;entryDx=0;entryDy=20;entryPerimeter=0;" parent="1" source="4IMUNL5szZFA0a5O7ddQ-8" target="4IMUNL5szZFA0a5O7ddQ-59" edge="1">
          <mxGeometry relative="1" as="geometry" />
        </mxCell>
        <mxCell id="4IMUNL5szZFA0a5O7ddQ-8" value="Data Collector" style="rounded=0;whiteSpace=wrap;html=1;" parent="1" vertex="1">
          <mxGeometry x="775" y="270" width="90" height="60" as="geometry" />
        </mxCell>
        <mxCell id="4IMUNL5szZFA0a5O7ddQ-10" value="" style="endArrow=classic;html=1;rounded=0;entryX=-0.008;entryY=0.328;entryDx=0;entryDy=0;entryPerimeter=0;" parent="1" source="4IMUNL5szZFA0a5O7ddQ-32" target="4IMUNL5szZFA0a5O7ddQ-4" edge="1">
          <mxGeometry width="50" height="50" relative="1" as="geometry">
            <mxPoint x="600" y="610" as="sourcePoint" />
            <mxPoint x="650" y="560" as="targetPoint" />
            <Array as="points">
              <mxPoint x="600" y="319" />
            </Array>
          </mxGeometry>
        </mxCell>
        <mxCell id="4IMUNL5szZFA0a5O7ddQ-11" value="Trip Organizer" style="whiteSpace=wrap;html=1;aspect=fixed;align=left;verticalAlign=top;" parent="1" vertex="1">
          <mxGeometry x="748" y="550" width="240" height="240" as="geometry" />
        </mxCell>
        <mxCell id="4IMUNL5szZFA0a5O7ddQ-12" value="User Communication Channel" style="whiteSpace=wrap;html=1;aspect=fixed;align=left;verticalAlign=top;" parent="1" vertex="1">
          <mxGeometry x="1150" y="540" width="400" height="400" as="geometry" />
        </mxCell>
        <mxCell id="4IMUNL5szZFA0a5O7ddQ-13" value="WebView" style="rounded=0;whiteSpace=wrap;html=1;" parent="1" vertex="1">
          <mxGeometry x="1170" y="590" width="89" height="59" as="geometry" />
        </mxCell>
        <mxCell id="4IMUNL5szZFA0a5O7ddQ-14" value="iOS application" style="rounded=0;whiteSpace=wrap;html=1;" parent="1" vertex="1">
          <mxGeometry x="1270" y="590" width="89" height="59" as="geometry" />
        </mxCell>
        <mxCell id="4IMUNL5szZFA0a5O7ddQ-16" value="Android application" style="rounded=0;whiteSpace=wrap;html=1;" parent="1" vertex="1">
          <mxGeometry x="1370" y="590" width="89" height="59" as="geometry" />
        </mxCell>
        <mxCell id="4IMUNL5szZFA0a5O7ddQ-50" style="edgeStyle=orthogonalEdgeStyle;rounded=0;orthogonalLoop=1;jettySize=auto;html=1;entryX=0.5;entryY=1;entryDx=0;entryDy=0;" parent="1" source="4IMUNL5szZFA0a5O7ddQ-28" target="4IMUNL5szZFA0a5O7ddQ-13" edge="1">
          <mxGeometry relative="1" as="geometry" />
        </mxCell>
        <mxCell id="4IMUNL5szZFA0a5O7ddQ-28" value="BFF" style="rounded=0;whiteSpace=wrap;html=1;" parent="1" vertex="1">
          <mxGeometry x="1281" y="690" width="89" height="59" as="geometry" />
        </mxCell>
        <mxCell id="4IMUNL5szZFA0a5O7ddQ-29" value="" style="shape=cylinder3;whiteSpace=wrap;html=1;boundedLbl=1;backgroundOutline=1;size=15;rotation=90;" parent="1" vertex="1">
          <mxGeometry x="1150" y="971.91" width="30" height="69.5" as="geometry" />
        </mxCell>
        <mxCell id="4IMUNL5szZFA0a5O7ddQ-30" value="" style="endArrow=classic;html=1;rounded=0;exitX=0.5;exitY=0;exitDx=0;exitDy=0;exitPerimeter=0;entryX=0.513;entryY=1.009;entryDx=0;entryDy=0;entryPerimeter=0;" parent="1" source="4IMUNL5szZFA0a5O7ddQ-29" target="4IMUNL5szZFA0a5O7ddQ-12" edge="1">
          <mxGeometry width="50" height="50" relative="1" as="geometry">
            <mxPoint x="1020" y="659" as="sourcePoint" />
            <mxPoint x="1316" y="659" as="targetPoint" />
            <Array as="points" />
          </mxGeometry>
        </mxCell>
        <mxCell id="4IMUNL5szZFA0a5O7ddQ-31" value="notification" style="edgeLabel;html=1;align=center;verticalAlign=middle;resizable=0;points=[];" parent="4IMUNL5szZFA0a5O7ddQ-30" vertex="1" connectable="0">
          <mxGeometry x="0.1054" y="-2" relative="1" as="geometry">
            <mxPoint as="offset" />
          </mxGeometry>
        </mxCell>
        <mxCell id="4IMUNL5szZFA0a5O7ddQ-32" value="" style="shape=cylinder3;whiteSpace=wrap;html=1;boundedLbl=1;backgroundOutline=1;size=15;rotation=90;" parent="1" vertex="1">
          <mxGeometry x="584.5" y="410.5" width="30" height="69.5" as="geometry" />
        </mxCell>
        <mxCell id="4IMUNL5szZFA0a5O7ddQ-46" value="trips and reservations" style="shape=cylinder3;whiteSpace=wrap;html=1;boundedLbl=1;backgroundOutline=1;size=15;" parent="1" vertex="1">
          <mxGeometry x="795" y="700" width="95" height="80" as="geometry" />
        </mxCell>
        <mxCell id="4IMUNL5szZFA0a5O7ddQ-49" style="edgeStyle=orthogonalEdgeStyle;rounded=0;orthogonalLoop=1;jettySize=auto;html=1;exitX=1;exitY=0.5;exitDx=0;exitDy=0;entryX=0;entryY=0.5;entryDx=0;entryDy=0;" parent="1" source="4IMUNL5szZFA0a5O7ddQ-47" target="4IMUNL5szZFA0a5O7ddQ-28" edge="1">
          <mxGeometry relative="1" as="geometry">
            <Array as="points">
              <mxPoint x="1126" y="640" />
              <mxPoint x="1126" y="719" />
            </Array>
          </mxGeometry>
        </mxCell>
        <mxCell id="4IMUNL5szZFA0a5O7ddQ-47" value="API Gateway" style="whiteSpace=wrap;html=1;aspect=fixed;" parent="1" vertex="1">
          <mxGeometry x="890" y="600" width="80" height="80" as="geometry" />
        </mxCell>
        <mxCell id="4IMUNL5szZFA0a5O7ddQ-54" style="edgeStyle=orthogonalEdgeStyle;rounded=0;orthogonalLoop=1;jettySize=auto;html=1;exitX=0;exitY=0.5;exitDx=0;exitDy=0;entryX=0.112;entryY=-0.015;entryDx=0;entryDy=0;startArrow=classic;startFill=1;entryPerimeter=0;" parent="1" source="4IMUNL5szZFA0a5O7ddQ-51" target="4IMUNL5szZFA0a5O7ddQ-67" edge="1">
          <mxGeometry relative="1" as="geometry">
            <mxPoint x="598.21" y="907.1599999999996" as="targetPoint" />
          </mxGeometry>
        </mxCell>
        <mxCell id="4IMUNL5szZFA0a5O7ddQ-55" value="import data on demand&amp;nbsp;&lt;br&gt;and push from email processor" style="edgeLabel;html=1;align=center;verticalAlign=middle;resizable=0;points=[];" parent="4IMUNL5szZFA0a5O7ddQ-54" vertex="1" connectable="0">
          <mxGeometry x="0.517" relative="1" as="geometry">
            <mxPoint as="offset" />
          </mxGeometry>
        </mxCell>
        <mxCell id="4IMUNL5szZFA0a5O7ddQ-51" value="Data Ingestion" style="whiteSpace=wrap;html=1;aspect=fixed;" parent="1" vertex="1">
          <mxGeometry x="775" y="600" width="80" height="80" as="geometry" />
        </mxCell>
        <mxCell id="4IMUNL5szZFA0a5O7ddQ-57" value="End-Of-Year report creation and caching" style="rounded=0;whiteSpace=wrap;html=1;" parent="1" vertex="1">
          <mxGeometry x="775" y="340" width="90" height="60" as="geometry" />
        </mxCell>
        <mxCell id="4IMUNL5szZFA0a5O7ddQ-62" style="edgeStyle=orthogonalEdgeStyle;rounded=0;orthogonalLoop=1;jettySize=auto;html=1;exitX=0.5;exitY=0;exitDx=0;exitDy=0;exitPerimeter=0;" parent="1" source="4IMUNL5szZFA0a5O7ddQ-58" target="4IMUNL5szZFA0a5O7ddQ-57" edge="1">
          <mxGeometry relative="1" as="geometry" />
        </mxCell>
        <mxCell id="4IMUNL5szZFA0a5O7ddQ-58" value="" style="shape=cylinder3;whiteSpace=wrap;html=1;boundedLbl=1;backgroundOutline=1;size=15;" parent="1" vertex="1">
          <mxGeometry x="795" y="430" width="60" height="40" as="geometry" />
        </mxCell>
        <mxCell id="4IMUNL5szZFA0a5O7ddQ-67" value="integration domain" style="rounded=0;whiteSpace=wrap;html=1;align=left;verticalAlign=top;" parent="1" vertex="1">
          <mxGeometry x="534.5" y="930" width="541" height="320" as="geometry" />
        </mxCell>
        <mxCell id="4IMUNL5szZFA0a5O7ddQ-59" value="" style="shape=cylinder3;whiteSpace=wrap;html=1;boundedLbl=1;backgroundOutline=1;size=15;" parent="1" vertex="1">
          <mxGeometry x="890" y="275" width="60" height="50" as="geometry" />
        </mxCell>
        <mxCell id="4IMUNL5szZFA0a5O7ddQ-65" value="Data Viewer" style="rounded=0;whiteSpace=wrap;html=1;" parent="1" vertex="1">
          <mxGeometry x="880" y="340" width="80" height="60" as="geometry" />
        </mxCell>
        <mxCell id="4IMUNL5szZFA0a5O7ddQ-66" value="" style="endArrow=none;html=1;rounded=0;exitX=0.5;exitY=1;exitDx=0;exitDy=0;exitPerimeter=0;entryX=0.5;entryY=0;entryDx=0;entryDy=0;" parent="1" source="4IMUNL5szZFA0a5O7ddQ-59" target="4IMUNL5szZFA0a5O7ddQ-65" edge="1">
          <mxGeometry width="50" height="50" relative="1" as="geometry">
            <mxPoint x="1070" y="325" as="sourcePoint" />
            <mxPoint x="1120" y="275" as="targetPoint" />
          </mxGeometry>
        </mxCell>
        <mxCell id="4IMUNL5szZFA0a5O7ddQ-9" value="Notification&amp;nbsp;" style="rounded=0;whiteSpace=wrap;html=1;" parent="1" vertex="1">
          <mxGeometry x="720.5" y="977.16" width="89" height="59" as="geometry" />
        </mxCell>
        <mxCell id="4IMUNL5szZFA0a5O7ddQ-36" style="edgeStyle=orthogonalEdgeStyle;rounded=0;orthogonalLoop=1;jettySize=auto;html=1;exitX=0.5;exitY=0;exitDx=0;exitDy=0;entryX=0.5;entryY=1;entryDx=0;entryDy=0;" parent="1" edge="1">
          <mxGeometry relative="1" as="geometry">
            <mxPoint x="600" y="1087.16" as="sourcePoint" />
            <mxPoint x="760.5" y="1036.1599999999999" as="targetPoint" />
            <Array as="points">
              <mxPoint x="600" y="1057.1599999999999" />
              <mxPoint x="761" y="1057.1599999999999" />
            </Array>
          </mxGeometry>
        </mxCell>
        <mxCell id="4IMUNL5szZFA0a5O7ddQ-21" value="Email processing" style="rounded=0;whiteSpace=wrap;html=1;" parent="1" vertex="1">
          <mxGeometry x="560" y="1087.1599999999999" width="89" height="59" as="geometry" />
        </mxCell>
        <mxCell id="4IMUNL5szZFA0a5O7ddQ-37" style="edgeStyle=orthogonalEdgeStyle;rounded=0;orthogonalLoop=1;jettySize=auto;html=1;entryX=0.5;entryY=1;entryDx=0;entryDy=0;" parent="1" edge="1">
          <mxGeometry relative="1" as="geometry">
            <mxPoint x="760.5" y="1036.1599999999999" as="targetPoint" />
            <mxPoint x="800.5" y="1087.16" as="sourcePoint" />
            <Array as="points" />
          </mxGeometry>
        </mxCell>
        <mxCell id="4IMUNL5szZFA0a5O7ddQ-40" style="edgeStyle=orthogonalEdgeStyle;rounded=0;orthogonalLoop=1;jettySize=auto;html=1;exitX=0.5;exitY=0;exitDx=0;exitDy=0;entryX=0.5;entryY=1;entryDx=0;entryDy=0;" parent="1" edge="1">
          <mxGeometry relative="1" as="geometry">
            <mxPoint x="699.0000000000001" y="1087.16" as="sourcePoint" />
            <mxPoint x="760.5" y="1036.1599999999999" as="targetPoint" />
            <Array as="points">
              <mxPoint x="699" y="1057.1599999999999" />
              <mxPoint x="761" y="1057.1599999999999" />
            </Array>
          </mxGeometry>
        </mxCell>
        <mxCell id="4IMUNL5szZFA0a5O7ddQ-24" value="Travel systems integration" style="rounded=0;whiteSpace=wrap;html=1;" parent="1" vertex="1">
          <mxGeometry x="955.75" y="1087.1599999999999" width="89" height="59" as="geometry" />
        </mxCell>
        <mxCell id="4IMUNL5szZFA0a5O7ddQ-25" value="Airlines integration" style="rounded=0;whiteSpace=wrap;html=1;" parent="1" vertex="1">
          <mxGeometry x="659" y="1087.1599999999999" width="89" height="59" as="geometry" />
        </mxCell>
        <mxCell id="4IMUNL5szZFA0a5O7ddQ-41" value="" style="edgeStyle=orthogonalEdgeStyle;rounded=0;orthogonalLoop=1;jettySize=auto;html=1;exitX=0.5;exitY=0;exitDx=0;exitDy=0;" parent="1" source="4IMUNL5szZFA0a5O7ddQ-24" edge="1">
          <mxGeometry relative="1" as="geometry">
            <mxPoint x="760.5" y="1036.1599999999999" as="targetPoint" />
            <mxPoint x="1000.75" y="1076.1599999999999" as="sourcePoint" />
            <Array as="points">
              <mxPoint x="1000" y="1056.1599999999999" />
              <mxPoint x="761" y="1056.1599999999999" />
              <mxPoint x="761" y="1036.1599999999999" />
            </Array>
          </mxGeometry>
        </mxCell>
        <mxCell id="4IMUNL5szZFA0a5O7ddQ-27" value="Car rental Integrations" style="rounded=0;whiteSpace=wrap;html=1;" parent="1" vertex="1">
          <mxGeometry x="860" y="1087.1599999999999" width="89" height="59" as="geometry" />
        </mxCell>
        <mxCell id="4IMUNL5szZFA0a5O7ddQ-42" value="" style="edgeStyle=orthogonalEdgeStyle;rounded=0;orthogonalLoop=1;jettySize=auto;html=1;exitX=0.5;exitY=0;exitDx=0;exitDy=0;" parent="1" source="4IMUNL5szZFA0a5O7ddQ-27" target="4IMUNL5szZFA0a5O7ddQ-9" edge="1">
          <mxGeometry relative="1" as="geometry">
            <mxPoint x="765" y="1036.1599999999999" as="targetPoint" />
            <mxPoint x="820" y="1117.1599999999999" as="sourcePoint" />
            <Array as="points">
              <mxPoint x="905" y="1057.1599999999999" />
              <mxPoint x="760" y="1057.1599999999999" />
            </Array>
          </mxGeometry>
        </mxCell>
        <mxCell id="4IMUNL5szZFA0a5O7ddQ-26" value="Hotel Integrations" style="rounded=0;whiteSpace=wrap;html=1;" parent="1" vertex="1">
          <mxGeometry x="760.5" y="1087.1599999999999" width="89" height="59" as="geometry" />
        </mxCell>
        <mxCell id="4IMUNL5szZFA0a5O7ddQ-18" value="" style="endArrow=classic;html=1;rounded=0;exitX=1;exitY=0.5;exitDx=0;exitDy=0;entryX=0.5;entryY=1;entryDx=0;entryDy=0;entryPerimeter=0;" parent="1" source="4IMUNL5szZFA0a5O7ddQ-9" target="4IMUNL5szZFA0a5O7ddQ-29" edge="1">
          <mxGeometry width="50" height="50" relative="1" as="geometry">
            <mxPoint x="704" y="1007.16" as="sourcePoint" />
            <mxPoint x="1000" y="1007.16" as="targetPoint" />
            <Array as="points" />
          </mxGeometry>
        </mxCell>
        <mxCell id="4IMUNL5szZFA0a5O7ddQ-20" value="notification" style="edgeLabel;html=1;align=center;verticalAlign=middle;resizable=0;points=[];" parent="4IMUNL5szZFA0a5O7ddQ-18" vertex="1" connectable="0">
          <mxGeometry x="0.1054" y="-2" relative="1" as="geometry">
            <mxPoint as="offset" />
          </mxGeometry>
        </mxCell>
        <mxCell id="4IMUNL5szZFA0a5O7ddQ-33" value="" style="endArrow=classic;html=1;rounded=0;entryX=1;entryY=0.5;entryDx=0;entryDy=0;entryPerimeter=0;" parent="1" source="4IMUNL5szZFA0a5O7ddQ-9" target="4IMUNL5szZFA0a5O7ddQ-32" edge="1">
          <mxGeometry width="50" height="50" relative="1" as="geometry">
            <mxPoint x="600" y="630" as="sourcePoint" />
            <mxPoint x="758" y="319" as="targetPoint" />
            <Array as="points">
              <mxPoint x="350" y="1010" />
              <mxPoint x="350" y="460" />
            </Array>
          </mxGeometry>
        </mxCell>
        <mxCell id="4IMUNL5szZFA0a5O7ddQ-34" value="notificiation" style="edgeLabel;html=1;align=center;verticalAlign=middle;resizable=0;points=[];" parent="4IMUNL5szZFA0a5O7ddQ-33" vertex="1" connectable="0">
          <mxGeometry x="-0.1416" y="1" relative="1" as="geometry">
            <mxPoint as="offset" />
          </mxGeometry>
        </mxCell>
        <mxCell id="4IMUNL5szZFA0a5O7ddQ-68" value="" style="endArrow=classic;html=1;rounded=0;" parent="1" edge="1">
          <mxGeometry width="50" height="50" relative="1" as="geometry">
            <mxPoint x="1250" y="900" as="sourcePoint" />
            <mxPoint x="1300" y="850" as="targetPoint" />
          </mxGeometry>
        </mxCell>
      </root>
    </mxGraphModel>
  </diagram>
</mxfile>
